Coordinates
version=1
nRows=65
nColumns=11
inDegrees=no

Units are S.I. units (second, meters, Newtons, ...)
If the header above contains a line with 'inDegrees', this indicates whether rotational values are in degrees (yes) or radians (no).

endheader
time	pelvis_tilt	pelvis_tx	pelvis_ty	hip_flexion_r	knee_angle_r	ankle_angle_r	hip_flexion_l	knee_angle_l	ankle_angle_l	lumbar_extension
0.01	0.0239284	0.132618	1.00423	-0.0493605	-0.0840963	0.284101	0.227553	-0.505778	0.300408	0
0.02	0.0248803	0.132872	1.00434	-0.0509826	-0.0835086	0.28422	0.226252	-0.505758	0.30017	0
0.03	0.0248234	0.133002	1.00436	-0.0511242	-0.0834657	0.284349	0.226556	-0.506346	0.298886	0
0.04	0.0246587	0.133016	1.00435	-0.0511037	-0.0831162	0.283992	0.226741	-0.506266	0.298774	0
0.05	0.0246667	0.133024	1.00434	-0.0513352	-0.0826942	0.283671	0.225906	-0.50508	0.298673	0
0.06	0.02469	0.133067	1.00434	-0.0515566	-0.0826229	0.28248	0.225005	-0.503873	0.295419	0
0.07	0.0244679	0.133032	1.00432	-0.0510255	-0.0834765	0.280247	0.225831	-0.504729	0.292906	0
0.08	0.0244598	0.133056	1.00428	-0.0508912	-0.083809	0.280122	0.22655	-0.505664	0.292698	0
0.09	0.024498	0.13305	1.00428	-0.0506181	-0.0838731	0.282688	0.226594	-0.505554	0.293821	0
0.1	0.0245673	0.133036	1.00429	-0.0505222	-0.083923	0.284291	0.226308	-0.505576	0.295355	0
0.11	0.0246895	0.133044	1.00428	-0.0508471	-0.0835667	0.284437	0.226136	-0.505339	0.295377	0
0.12	0.0249285	0.133075	1.00426	-0.0514692	-0.0832097	0.283442	0.226335	-0.506157	0.295542	0
0.13	0.0249318	0.133043	1.00425	-0.0512688	-0.0840792	0.280718	0.227688	-0.508072	0.298843	0
0.14	0.0243753	0.132962	1.00435	-0.0502382	-0.0850847	0.278817	0.228881	-0.508938	0.299796	0
0.15	0.0242992	0.132974	1.00443	-0.0504466	-0.0843759	0.279549	0.228391	-0.508134	0.299167	0
0.16	0.0244986	0.132954	1.00444	-0.050907	-0.0834042	0.281772	0.22717	-0.506842	0.296953	0
0.17	0.0242011	0.13287	1.0044	-0.0503261	-0.0837966	0.280517	0.227446	-0.506632	0.294485	0
0.18	0.0233114	0.132712	1.0043	-0.0488187	-0.0848165	0.278424	0.230115	-0.508934	0.295334	0
0.19	0.0223525	0.132484	1.00412	-0.0470681	-0.0858755	0.278144	0.23233	-0.510274	0.295384	0
0.2	0.0226637	0.132494	1.00411	-0.047593	-0.0853618	0.279563	0.231178	-0.50922	0.296562	0
0.21	0.0234979	0.132645	1.00423	-0.0487645	-0.0847552	0.281871	0.229102	-0.507814	0.295702	0
0.22	0.0226253	0.132397	1.00417	-0.0467289	-0.0862087	0.281761	0.230577	-0.508227	0.295826	0
0.23	0.0219457	0.132251	1.00412	-0.0458909	-0.0858495	0.282851	0.231475	-0.50835	0.296586	0
0.24	0.0234106	0.132825	1.00437	-0.0497172	-0.0828827	0.28134	0.228942	-0.508425	0.300935	0
0.25	0.0240404	0.133067	1.00457	-0.051275	-0.0819672	0.278331	0.228819	-0.511042	0.301608	0
0.26	0.0237993	0.132969	1.00459	-0.0505066	-0.0826343	0.279444	0.229358	-0.51318	0.300267	0
0.27	0.0228965	0.132694	1.0044	-0.0484384	-0.0846091	0.283004	0.23048	-0.514549	0.298883	0
0.28	0.0220729	0.132439	1.00413	-0.046273	-0.0878641	0.286673	0.230017	-0.513416	0.302842	0
0.29	0.0228188	0.132719	1.00419	-0.0482467	-0.088777	0.288285	0.227169	-0.512089	0.305017	0
0.3	0.0233522	0.132917	1.00423	-0.0505261	-0.0886293	0.28781	0.225547	-0.512538	0.304352	0
0.31	0.0235613	0.13303	1.00408	-0.0515986	-0.0892702	0.288322	0.224974	-0.514118	0.30347	0
0.32	0.023291	0.133026	1.00401	-0.0515716	-0.0905643	0.288424	0.226167	-0.517074	0.300589	0
0.33	0.023199	0.133031	1.004	-0.0523298	-0.090975	0.290595	0.225802	-0.518098	0.29914	0
0.34	0.0233275	0.133079	1.00398	-0.0539479	-0.0903893	0.292489	0.224144	-0.517664	0.299627	0
0.35	0.0229505	0.132975	1.00387	-0.0547015	-0.0899117	0.293712	0.224256	-0.518979	0.30227	0
0.36	0.0217763	0.132548	1.00363	-0.0537444	-0.0905279	0.292885	0.226683	-0.522039	0.304312	0
0.37	0.0215372	0.132471	1.00355	-0.053855	-0.0917177	0.292134	0.227266	-0.524529	0.307248	0
0.38	0.0219111	0.132709	1.00359	-0.0554514	-0.0922642	0.293832	0.226267	-0.525742	0.308643	0
0.39	0.0221381	0.132848	1.00364	-0.0579939	-0.0903715	0.293904	0.224904	-0.525857	0.305235	0
0.4	0.0225906	0.132945	1.00367	-0.0610759	-0.0881409	0.292858	0.223751	-0.527101	0.302916	0
0.41	0.0229077	0.132968	1.00371	-0.0632049	-0.0876944	0.293674	0.222313	-0.527805	0.305178	0
0.42	0.0231396	0.132958	1.00363	-0.0647197	-0.0885777	0.298349	0.22055	-0.52793	0.306569	0
0.43	0.0232203	0.132835	1.00344	-0.0656965	-0.089297	0.302046	0.219052	-0.527636	0.310105	0
0.44	0.0230604	0.132511	1.00329	-0.066448	-0.0892068	0.303036	0.219324	-0.529455	0.310919	0
0.45	0.0230823	0.132282	1.00327	-0.0668456	-0.090319	0.300957	0.219856	-0.532293	0.309575	0
0.46	0.0229503	0.13212	1.00325	-0.0665428	-0.092542	0.300767	0.220637	-0.535586	0.308489	0
0.47	0.0227246	0.131934	1.0033	-0.0660226	-0.0950099	0.30246	0.220625	-0.536999	0.307374	0
0.48	0.0224486	0.131692	1.00342	-0.0668542	-0.094632	0.304369	0.221022	-0.538679	0.30868	0
0.49	0.0217308	0.131118	1.0035	-0.0662971	-0.0955345	0.305089	0.222563	-0.541348	0.309229	0
0.5	0.0204805	0.13024	1.00334	-0.0644966	-0.0975167	0.305375	0.227544	-0.548375	0.305172	0
0.51	0.0189273	0.12947	1.00331	-0.0631982	-0.0983304	0.305276	0.23452	-0.558039	0.299168	0
0.52	0.0166672	0.129062	1.00335	-0.0622036	-0.0969511	0.30442	0.243045	-0.568897	0.293009	0
0.53	0.0151974	0.128333	1.00337	-0.061362	-0.0967075	0.304124	0.250679	-0.581121	0.287464	0
0.54	0.0135056	0.12727	1.00322	-0.058461	-0.0988416	0.3052	0.258112	-0.590733	0.284624	0
0.55	0.0121716	0.126144	1.0032	-0.0567322	-0.100236	0.304822	0.266634	-0.601754	0.280961	0
0.56	0.00990656	0.124845	1.00318	-0.0538328	-0.10191	0.306209	0.277348	-0.614482	0.275135	0
0.57	0.00787257	0.123652	1.00334	-0.0517008	-0.102551	0.306462	0.289131	-0.630195	0.262464	0
0.58	0.00626459	0.122617	1.00374	-0.0511584	-0.101561	0.304049	0.302266	-0.650196	0.245534	0
0.59	0.00369149	0.121251	1.00391	-0.0490022	-0.101229	0.301796	0.316345	-0.668518	0.231139	0
0.6	0.00140198	0.119842	1.00391	-0.0465997	-0.101358	0.300117	0.327755	-0.68268	0.225199	0
0.61	-0.000223653	0.118452	1.00395	-0.0442488	-0.102871	0.301182	0.337857	-0.695334	0.218264	0
0.62	-0.00191113	0.117153	1.00392	-0.0417921	-0.103977	0.303003	0.351015	-0.711891	0.206173	0
0.63	-0.00339748	0.116017	1.00422	-0.0404025	-0.104782	0.302396	0.362865	-0.72527	0.200629	0
0.64	-0.00565323	0.114895	1.00445	-0.0380656	-0.105918	0.301721	0.37386	-0.733796	0.201369	0
0.65	-0.00930604	0.11312	1.00433	-0.0326056	-0.108506	0.301092	0.38689	-0.740018	0.20708	0
